<mxfile host="app.diagrams.net" modified="2021-04-12T08:16:28.616Z" agent="5.0 (Macintosh; Intel Mac OS X 10_15_7) AppleWebKit/537.36 (KHTML, like Gecko) Chrome/89.0.4389.114 Safari/537.36" etag="l8xXREpKDjmnunp4B0tb" version="14.5.10" type="github">
  <diagram id="_DBOhe5kyn5AZzkCBfSt" name="Page-1">
    <mxGraphModel dx="1141" dy="635" grid="1" gridSize="10" guides="1" tooltips="1" connect="1" arrows="1" fold="1" page="1" pageScale="1" pageWidth="850" pageHeight="1100" math="0" shadow="0">
      <root>
        <mxCell id="0" />
        <mxCell id="1" parent="0" />
        <mxCell id="911lLUoRcZe3AvM8uptB-5" value="" style="shape=cylinder3;whiteSpace=wrap;html=1;boundedLbl=1;backgroundOutline=1;size=15;" vertex="1" parent="1">
          <mxGeometry x="240" y="240.9" width="60" height="80" as="geometry" />
        </mxCell>
        <mxCell id="911lLUoRcZe3AvM8uptB-6" value="" style="points=[];aspect=fixed;html=1;align=center;shadow=0;dashed=0;image;image=img/lib/allied_telesis/computer_and_terminals/Personal_Computer.svg;" vertex="1" parent="1">
          <mxGeometry x="530" y="256" width="45.6" height="61.800000000000004" as="geometry" />
        </mxCell>
        <mxCell id="911lLUoRcZe3AvM8uptB-7" value="" style="aspect=fixed;perimeter=ellipsePerimeter;html=1;align=center;shadow=0;dashed=0;spacingTop=3;image;image=img/lib/active_directory/generic_server.svg;" vertex="1" parent="1">
          <mxGeometry x="397" y="256" width="28.000000000000004" height="50" as="geometry" />
        </mxCell>
        <mxCell id="911lLUoRcZe3AvM8uptB-8" value="" style="endArrow=classic;html=1;exitX=0.99;exitY=0.593;exitDx=0;exitDy=0;exitPerimeter=0;entryX=-0.031;entryY=0.553;entryDx=0;entryDy=0;entryPerimeter=0;" edge="1" parent="1" source="911lLUoRcZe3AvM8uptB-5" target="911lLUoRcZe3AvM8uptB-6">
          <mxGeometry width="50" height="50" relative="1" as="geometry">
            <mxPoint x="530" y="450" as="sourcePoint" />
            <mxPoint x="580" y="400" as="targetPoint" />
          </mxGeometry>
        </mxCell>
      </root>
    </mxGraphModel>
  </diagram>
</mxfile>
